<svg xmlns="http://www.w3.org/2000/svg" width="100" height="100" viewBox="0 0 100 100"><rect width="100%" height="100%" fill="#333333"/><path fill="#ffffff" d="M20.6 50.1h1.21q.44 0 .78-.11.32-.12.54-.32.22-.21.33-.51.11-.29.11-.66 0-.35-.11-.63t-.32-.48q-.22-.2-.55-.3-.33-.11-.78-.11H20.6zm-1.61-4.37h2.82q.87 0 1.51.21.63.2 1.05.57.41.36.61.87t.2 1.12q0 .63-.21 1.16-.21.52-.63.9t-1.05.59-1.48.21H20.6v3.05h-1.61zm7.21-.24h1.48v8.92H26.2zm6.22 7.33v-1.04q-.64.03-1.08.11t-.7.21q-.27.13-.38.29-.11.17-.11.37 0 .39.23.56t.6.17q.45 0 .79-.17.33-.16.65-.5m-3.13-3.23-.27-.48q1.06-.97 2.56-.97.54 0 .96.18.43.17.73.49.29.31.44.75t.15.96v3.89h-.67q-.21 0-.32-.06-.12-.07-.18-.26l-.13-.44q-.24.21-.46.37t-.46.26q-.24.11-.51.17-.28.06-.61.06-.39 0-.72-.11-.33-.1-.57-.31t-.37-.53q-.13-.31-.13-.72 0-.24.08-.47.07-.23.25-.44t.46-.39q.28-.19.69-.33.42-.14.96-.22.55-.09 1.25-.11v-.36q0-.62-.27-.91-.26-.3-.76-.3-.36 0-.59.08-.24.09-.42.19-.18.11-.33.19-.15.09-.33.09-.15 0-.26-.08-.11-.09-.17-.19m10.77-.57-.39.54q-.07.08-.13.13-.07.05-.19.05-.11 0-.22-.07l-.25-.16q-.16-.09-.36-.15-.21-.07-.52-.07-.39 0-.68.14t-.49.4q-.19.27-.29.64-.1.38-.1.85 0 .49.11.88.1.38.3.64t.48.4q.28.13.64.13.35 0 .57-.09.22-.08.37-.19.15-.1.26-.19t.25-.09q.18 0 .27.14l.43.54q-.25.29-.54.49-.29.19-.59.31-.31.11-.64.16t-.65.05q-.57 0-1.08-.21-.5-.22-.88-.62-.38-.41-.59-1-.22-.59-.22-1.35 0-.68.19-1.26.2-.58.57-1 .38-.42.94-.66t1.28-.24q.69 0 1.21.22t.94.64m2.15 1.6h2.8q0-.28-.08-.54-.09-.25-.25-.45-.16-.19-.41-.3t-.58-.11q-.64 0-1.01.37-.37.36-.47 1.03m3.78.9h-3.81q.04.47.17.82.13.34.35.57.21.22.51.33t.66.11.62-.08.45-.19q.2-.1.35-.18.14-.09.28-.09.19 0 .28.14l.42.54q-.24.29-.55.49-.31.19-.64.31-.33.11-.68.16-.34.05-.67.05-.64 0-1.19-.21-.55-.22-.96-.63-.41-.42-.64-1.04-.24-.61-.24-1.42 0-.63.21-1.19.2-.55.58-.96t.93-.65 1.24-.24q.58 0 1.08.18.49.19.84.55.36.35.56.87t.2 1.19q0 .33-.07.45-.08.12-.28.12m2.94-6.03v3.42q.36-.33.79-.54t1.02-.21q.5 0 .89.17t.65.48.4.74q.13.43.13.94v3.92h-1.48v-3.92q0-.56-.26-.87t-.78-.31q-.39 0-.72.17-.34.18-.64.48v4.45h-1.48v-8.92zm8.01 2.67q.68 0 1.25.22.56.22.96.63.39.41.61 1 .22.58.22 1.31t-.22 1.32-.61 1q-.4.42-.96.64-.57.22-1.25.22-.69 0-1.25-.22-.57-.22-.97-.64-.4-.41-.61-1-.22-.59-.22-1.32t.22-1.31q.21-.59.61-1t.97-.63q.56-.22 1.25-.22m0 5.2q.77 0 1.14-.52.37-.51.37-1.51 0-.99-.37-1.52-.37-.52-1.14-.52-.78 0-1.15.53-.38.52-.38 1.51t.38 1.51q.37.52 1.15.52m4.19-7.87h1.48v8.92h-1.48zm6.83 7.1v-2.76q-.26-.31-.55-.44-.3-.12-.64-.12t-.61.12q-.27.13-.46.39-.19.25-.29.64-.11.4-.11.93 0 .54.09.91.09.38.25.62.16.23.4.34.23.1.52.1.46 0 .78-.19.33-.19.62-.54m0-7.1h1.48v8.92h-.91q-.29 0-.37-.27l-.13-.59q-.37.42-.85.69-.48.26-1.13.26-.5 0-.92-.21t-.72-.61q-.31-.4-.47-.99-.17-.58-.17-1.34 0-.68.19-1.27t.53-1.02q.35-.43.84-.68.48-.24 1.09-.24.52 0 .88.16.37.16.66.44zm4.11 5.13h2.8q0-.28-.08-.54-.08-.25-.25-.45-.16-.19-.41-.3t-.57-.11q-.65 0-1.02.37-.36.36-.47 1.03m3.78.9h-3.81q.04.47.17.82.13.34.35.57.21.22.51.33t.66.11.62-.08.46-.19l.34-.18q.14-.09.28-.09.19 0 .28.14l.42.54q-.24.29-.55.49-.3.19-.64.31-.33.11-.67.16-.35.05-.67.05-.65 0-1.2-.21-.55-.22-.96-.63-.4-.42-.64-1.04-.23-.61-.23-1.42 0-.63.2-1.19.2-.55.59-.96.38-.41.93-.65t1.23-.24q.59 0 1.08.18.49.19.85.55.35.35.55.87t.2 1.19q0 .33-.07.45t-.28.12m2.77-2.89.09.69q.29-.55.68-.87.4-.31.94-.31.43 0 .68.19l-.09 1.11q-.03.1-.09.15-.06.04-.15.04t-.27-.03-.34-.03q-.25 0-.44.08-.19.07-.35.2-.15.14-.27.33-.11.19-.22.44v3.79h-1.48v-6.16h.87q.23 0 .32.08.09.09.12.3"/></svg>